<svg width="0" height="0" class="hidden">
  <symbol version="1.1" id="trading" xmlns="http://www.w3.org/2000/svg" xmlns:xlink="http://www.w3.org/1999/xlink" x="0px" y="0px" xml:space="preserve" viewBox="0 0 50 50">
	<g>
	<path d="M47.8,11c-6.6-1.9-13.3-3.7-19.9-5.7c-2-0.6-3.1,0.1-3.7,2c-0.6,1.9-1.2,3.9-1.8,5.8   c-2.2,7.2-4.4,14.4-6.6,21.5c-0.2,0.8-0.3,1.9-1.5,1.8c-1.2-0.1-1.9-1.1-2-2.3c-0.1-0.6,0.1-1.2,0.3-1.8c0.5-1.7,1-3.4,1.6-5.1   C16.2,21,18.1,14.8,20,8.5c0.2-0.7,1.2-2.3-0.8-2C13.5,7.3,7.9,8.1,2.3,8.9c-1.7,0.3-2.5,1.4-2.3,4c1.3,8.9,2.8,18.6,4.3,28.3   c0.3,1.9,1.6,2.6,3.4,2.3c3.1-0.4,6.3-0.7,9.4-1.3c5.1-1,10.1-1.2,15,0.9c1.8,0.7,3.7,1.1,5.6,1.6c1.7,0.4,2.9-0.1,3.4-1.9   c2.9-9.4,5.8-18.8,8.6-28.2C50.4,12.8,49.8,11.6,47.8,11z M38.8,30.4c-1.6,1.8-3.6,2.6-5.9,2.7c-3.9,0-7.3-2.9-7.9-6.8   c-0.2-0.9-0.6-2.4,0.6-2.6c1.2-0.2,2.7,0,3.4,1.4c2.2,4.3,3,4.6,7.1,2.2c1.4-0.8,2.7-0.1,3.6,0.7C40.5,28.9,39.4,29.8,38.8,30.4z    M30.4,25c0.1-1.5,1.1-2.3,2.6-2.4c1.5,0.2,2.4,1.1,2.4,2.6c-0.1,1.5-1.1,2.5-2.6,2.4C31.3,27.5,30.3,26.5,30.4,25z M40.1,26.4   c-1.2,0.2-2.9,0-3.4-1.8c-0.2-0.8-0.5-1.5-1-2c-1.4-1.5-3-1.7-4.8-0.7c-0.4,0.2-0.7,0.6-1.1,0.8c-1.4,0.8-2.8,0.2-3.6-0.6   c-0.9-0.9,0.3-1.8,0.9-2.5c1.4-1.6,3.7-2.5,5.8-2.5c3.8,0,7.1,2.7,7.9,6.6C40.9,24.6,41.6,26.1,40.1,26.4z"/>
</g>
  </symbol>
  <symbol version="1.1" id="tv" xmlns="http://www.w3.org/2000/svg" xmlns:xlink="http://www.w3.org/1999/xlink" x="0px" y="0px" xml:space="preserve" viewBox="0 0 50 50">
	<g>
	<path d="M25.2,44.3c-3.6-0.2-7.2-0.6-10.4-2.6c-4.9-3-6.3-7.8-3.6-12.8c0.9-1.7,0.6-2.5-0.8-3.6c-4.1-3.2-7.7-7-9.7-12   c-0.4-1.1-1.3-2.5-0.2-3.4C1.6,8.9,3,9.7,4,10.2c4.9,2.4,8.7,6.2,11.8,10.6c1.1,1.6,2.1,2,4,1.3c3.6-1.4,7.3-1.3,10.9,0.2   c1.5,0.6,2.2,0.2,3-1c2.9-4.4,6.5-8.1,11.2-10.6c1.4-0.7,3.1-2.1,4.5-0.8c1.3,1.3,0,3.1-0.7,4.5c-2.2,4.5-5.5,8-9.4,11   c-1.3,1-1.5,1.8-0.6,3.2c3,5.3,1.4,10.5-4,13.4C31.8,43.7,28.5,44.1,25.2,44.3z"/>
	<path d="M25,47.7c-4.4,0.2-8.8-0.2-13.1-1.5C4.1,44,0.3,39.1,0.1,31c-0.1-2.9-0.4-5.9,1.3-8.6c0.8-1.3,1.6-2,2.7-0.3   c0.1,0.1,0.2,0.2,0.3,0.3c3.4,2.7,5.8,5.3,3.8,10.5c-1.5,3.9,1.1,7.7,4.7,9.8c7.7,4.5,15.8,4.6,23.7,0.4c5-2.7,6.7-8.2,4.5-13.7   c-0.7-1.7-0.4-2.6,1-3.7c1.3-1,2.4-2.2,3.5-3.4c1-1.1,1.7-1,2.5,0.2c3.7,5.9,0.5,18.6-5.7,21.9c-4.2,2.3-8.8,2.9-13.5,3.2   C27.6,47.8,26.3,47.7,25,47.7z"/>
	<path d="M21,13.2c2.2-0.6,4.3-1.5,6.5,0c0.5,0.3,1.2,0.3,1.4,0.9c1,1.5,2.2,2.5,4.2,2.4c1.1-0.1,1.3,0.5,0.7,1.5   c-1.1,1.7-2,2.8-4.4,1.9c-2.8-1.1-6-1-8.9,0c-2.4,0.8-3.4-0.5-4.5-2.1c-0.5-0.8-0.2-1.3,0.6-1.2c2.1,0.1,3-1.2,3.8-2.8   C20.4,13.3,20.6,13.1,21,13.2z"/>
	<path d="M21,13.2c-0.2,0.2-0.4,0.4-0.5,0.6c-1.8-1.7-4.1-3-5.6-5.1C14.8,8.2,15,7.9,15.5,8C17.7,9.4,19.3,11.3,21,13.2   z"/>
	<path d="M28.9,14.2c-0.5-0.3-0.9-0.6-1.4-0.9c2.5-1.1,3.8-3.7,6.1-5.1c0.6-0.4,0.9-0.3,0.9,0.5   C33.1,10.9,30.3,11.8,28.9,14.2z"/>
	<path d="M37.3,4.9c0.2-0.5,0.3-1,0.5-1.5c0.3-0.8,0.9-1.2,1.8-1c0.7,0.1,1,0.6,1.1,1.3c0.1,0.9-0.4,1.4-1.3,1.6   c-0.5,0.1-1.1,0.1-1.6,0.2C37.4,5.5,37.2,5.3,37.3,4.9z"/>
	<path d="M10.3,5.3C9.3,5.2,8.5,4.7,8.6,3.5c0.1-0.7,0.5-1.1,1.2-1.2c1.2-0.2,1.5,0.7,1.8,1.6C11.6,4.7,11,5.1,10.3,5.3   z"/>
	<path d="M10.3,5.3c0.4-0.4,0.9-0.9,1.3-1.3c0.7,1.9,2.6,2.7,3.9,4.1c-0.2,0.2-0.4,0.4-0.6,0.6   C13.3,7.6,12.4,5.6,10.3,5.3z"/>
	<path d="M37.3,4.9c0.2,0.2,0.3,0.4,0.5,0.5c-1.1,1.1-2.2,2.1-3.3,3.2c-0.3-0.2-0.6-0.3-0.9-0.5   C34.8,7,36.1,6,37.3,4.9z"/>
</g>
  </symbol>
  <symbol version="1.1" id="events" xmlns="http://www.w3.org/2000/svg" xmlns:xlink="http://www.w3.org/1999/xlink" x="0px" y="0px" xml:space="preserve" viewBox="0 0 50 50">
<g>
	<path d="M41.4,10.2c-0.9,0.4-1.7,1-2.6-0.1c-0.3-0.3-1.1-0.3-1.7-0.3c-8.3,0-16.6,0-24.9,0c-0.5,0-1.2-0.1-1.5,0.2   c-1.1,1-2,0.3-2.9-0.1C5.2,8.8,2.7,7.6,0,6.4c0.1,0.6,0,0.8,0.1,1C2.5,11.9,5,16.5,7.4,21c0.3,0.5,0.7,1.1,1.3,1.2   c4.6,1.3,8.6,3.7,12.8,5.9c2,1,2.5,1.9,2,5c-0.3,2.1-1.9,1.4-3.1,1.4c-7.3,0.1-7.3,0.1-8.1,7.3c-0.1,1.3,0.1,1.8,1.5,1.8   c7.3,0,14.6,0,21.9,0c1.3,0,1.7-0.5,1.5-1.8c-0.4-1.9-0.7-3.7-1-5.6c-0.2-1.2-0.8-1.7-2-1.6c-2,0-4,0-5.9,0c-1,0-2.2,0-2.1-1.4   c0.1-1.6-1.2-3.6,1.1-4.7c4.4-2,8.5-4.7,13.3-5.9c1.2-0.3,1.9-1.1,2.4-2.2c1.5-2.9,3.1-5.8,4.6-8.7c0.9-1.6,1.9-3.2,2.6-5.5   C46.9,7.7,44.2,9,41.4,10.2z M5.4,12.1c6,0.5,6,5.2,7.4,8.9C8.2,19.9,8.1,15.3,5.4,12.1z M36.1,21.5c2.3-7.2,2.8-7.9,7.6-9.4   C43.2,16.1,39.5,20.7,36.1,21.5z"/>
</g>
  </symbol>
  <symbol version="1.1" id="games" xmlns="http://www.w3.org/2000/svg" xmlns:xlink="http://www.w3.org/1999/xlink" x="0px" y="0px" xml:space="preserve" viewBox="0 0 50 50">
<g>
	<path d="M50,20.9c0.1-2.2-0.9-3.2-3.1-3.1c-3.8,0.1-7.6,0-11.4,0c-3,0-3.4-0.4-3.4-3.5c0-3.8-0.1-7.6,0-11.4   c0-2.1-0.8-2.9-2.8-2.8c-2.7,0.1-5.4,0.1-8.1,0c-2.4-0.1-3.3,0.9-3.3,3.2c0,3.6,0,7.3,0,10.9c0,3.4-0.2,3.6-3.7,3.6   c-3.7,0-7.5,0-11.2,0c-2,0-2.9,0.8-2.9,2.9c0.1,3,0,6,0,9C0,31.3,0.8,32,2.4,32c2.1,0,4.3,0,6.4,0c0,0,0,0,0,0c1.9,0,3.8,0,5.7,0   c2.7,0,3.2,0.5,3.2,3.2c0,3.9,0.1,7.8,0,11.7c0,2.2,1,3.2,3.2,3.1c2.7,0,5.4-0.1,8.1,0c2.3,0.1,3.1-1,3-3.2c-0.1-3.9,0-7.8,0-11.7   c0-2.2,0.9-3.2,3.1-3.2c3.9,0.1,7.8,0,11.7,0c2.8,0,3.1-0.4,3.1-3.2C50,26.1,49.9,23.5,50,20.9z M7.8,28.2   c-1.5,0.3-2.4-1.5-3.3-2.7c-0.6-0.7,2.2-4.2,3.2-4.1c0.6,0,0.7,0.5,0.8,1c0,0.9,0,1.7,0,2.9C8.3,26.2,9.1,28,7.8,28.2z M25.1,4.3   c1.4,0.7,3.2,1.9,3.2,3.3c-0.1,1.9-2.2,0.6-3.3,1.1c-1.1-0.5-2.7,0.7-3.3-1C21.4,7,24.5,4,25.1,4.3z M25.1,45.6   c-0.7,0.3-3.7-2.6-3.4-3.2c0.7-1.8,2.4-0.5,3.5-1c1.1,0.5,3.1-0.7,3.1,1C28.2,43.8,26.6,45,25.1,45.6z M45.4,25.6   c-0.8,1.1-1.7,2.3-3.1,2.8c-0.5,0.2-0.8-0.4-0.8-0.9c0-0.9,0-1.7,0-3c0.2-0.8-0.7-2.4,0.6-2.9c1.2-0.4,1.8,1.2,2.7,2   C45.4,24.1,46.1,24.7,45.4,25.6z"/>
</g>
  </symbol>
  <symbol version="1.1" id="home" xmlns="http://www.w3.org/2000/svg" xmlns:xlink="http://www.w3.org/1999/xlink" x="0px" y="0px" xml:space="preserve" viewBox="0 0 50 50">
    <g>
	<path d="M25.3,46.6c-3,0.1-5.6-0.4-8.1-1.4c-8.1-3.3-10.9-11.4-6.3-18.8c0.9-1.5,0.7-2.3-0.5-3.4   C6.5,19,3.2,14.6,1.3,9.4C0.8,8.2,0.5,7,0.2,5.8C0,5.1-0.2,4.2,0.4,3.7c0.7-0.6,1.5-0.2,2.2,0.1c3.7,1.6,6.5,4.2,9,7.3   c2,2.4,3.8,5.1,5.1,8c0.5,1.1,1,1.2,2.2,0.8c4-1.5,8-1.5,12-0.1c1.3,0.5,1.8,0.2,2.4-1c2.5-5,5.8-9.5,10.3-12.9   c1.4-1,2.8-2,4.5-2.4c1.2-0.4,2,0.1,1.8,1.4c-0.1,1-0.4,2.1-0.7,3.1c-2,5.9-5.5,10.8-9.9,15.1c-0.9,0.9-1.3,1.5-0.4,2.8   c5.5,8.6,1.1,18.4-8.9,20.2C28.4,46.5,26.8,46.7,25.3,46.6z"/>
    </g>
  </symbol>
  <symbol version="1.1" id="news" xmlns="http://www.w3.org/2000/svg" xmlns:xlink="http://www.w3.org/1999/xlink" x="0px" y="0px" xml:space="preserve" viewBox="0 0 50 50">
<g>
	<path d="M43.6,23c0-5,0-9.9,0-14.9c0-0.9-0.4-2.3,1-2.3c1.3,0,1,1.3,1,2.1c0,9.9,0,19.9,0,29.8c0,0.8,0.3,2.1-0.9,2.2   c-1.4,0-1.1-1.4-1.1-2.3C43.6,32.8,43.6,27.9,43.6,23z"/>
	<path d="M50,10.1c0-0.8,0.2-2.1-1.1-2C47.6,8.2,48,9.5,48,10.3c0,4.6,0,9.1,0,13.7c0,4.8,0,9.6-0.1,14.4   c-0.1,2.5-1.3,3.7-3.3,3.7c-2,0-3.1-1.3-3.3-3.8c-0.1-0.8,0-1.6,0-2.4c0-9.5,0-19.1,0-28.6c0-2.9-0.9-3.9-3.8-3.9   c-11.4,0-22.9,0-34.3,0C1.1,3.4,0,4.3,0,6.5C0,18.6,0,30.8,0,43c0,2.7,1,3.6,3.8,3.6c6.5,0,12.9,0,19.4,0c6.5,0,13.1,0,19.6,0   c4.1,0,7.1-2.8,7.2-6.8C50,29.9,50,20,50,10.1z M28.3,9.8c2.3,0.1,4.6,0.1,6.8,0c1.5,0,2,0.8,2,2.1c0,1.3-0.3,2.3-1.9,2.2   c-1.2,0-2.4,0-3.7,0c0,0,0,0,0,0c-1.1,0-2.1,0-3.2,0C26.9,14.3,26,13.8,26,12C26,10.3,26.7,9.8,28.3,9.8z M4.3,12   c0-1.6,0.6-2.2,2.1-2.2c2.2,0.1,4.4,0,6.6,0c2.1,0,4.2,0,6.4,0c1.5,0,2.3,0.4,2.2,2.1c-0.1,4.3,0,8.6,0,12.9c0,1.5-0.6,2.2-2.1,2.2   c-4.3,0-8.6-0.1-13,0c-1.7,0-2.3-0.7-2.2-2.4C4.4,20.5,4.4,16.2,4.3,12z M35,42.2c-9.5,0-19.1,0-28.6,0c-0.7,0-1.9,0.2-1.9-1   c0-1.2,1.1-1,1.9-1c4.8,0,9.6,0,14.4,0c4.7,0,9.4,0,14.2,0c0.8,0,1.8-0.2,1.9,1C36.9,42.5,35.8,42.2,35,42.2z M34.5,38.2   c-4.6,0-9.1,0-13.7,0c-4.6,0-9.3,0-13.9,0c-1,0-2.5,0.4-2.4-1.2c0-1.6,1.5-1.1,2.5-1.1c9.2,0,18.4,0,27.6,0c0.9,0,2.2-0.4,2.3,1.1   C37,38.6,35.5,38.2,34.5,38.2z M34.5,33.8c-4.6,0-9.3,0-13.9,0c-4.6,0-9.1,0-13.7,0c-1,0-2.4,0.4-2.4-1.2c0-1.5,1.4-1.1,2.3-1.1   c9.3,0,18.6,0,27.9,0c0.9,0,2.2-0.4,2.3,1.1C36.9,34.2,35.5,33.8,34.5,33.8z M34.7,27.1c-1.1,0-2.1,0-3.2,0c-1.1,0-2.1,0-3.2,0   c-1.4,0.1-2.3-0.3-2.3-2c0-1.6,0.7-2.2,2.2-2.2c2.2,0.1,4.4,0.1,6.6,0c1.7-0.1,2.3,0.7,2.3,2.3C37.1,27,36,27.1,34.7,27.1z    M34.8,20.7c-1.1-0.1-2.3,0-3.4,0c-1,0-2-0.1-2.9,0c-1.7,0.1-2.5-0.4-2.5-2.3c0-2,1.1-2.2,2.6-2.2c2.1,0.1,4.2,0.1,6.3,0   c1.8-0.1,2.2,0.9,2.2,2.4C37.1,20.3,36.3,20.8,34.8,20.7z"/>
</g>
  </symbol>
  <symbol version="1.1" id="pokedex" xmlns="http://www.w3.org/2000/svg" xmlns:xlink="http://www.w3.org/1999/xlink" x="0px" y="0px" xml:space="preserve" viewBox="0 0 50 50">
   <g>
	<path d="M6.9,26.6c0.6,0,1.3,0.1,1.9,0c2.9-0.4,4.6,0.4,5.9,3.5c1.9,4.6,5.9,7,11,6.7c4.9-0.3,8.5-3,10.2-7.6   c0.8-2.1,1.8-2.8,3.9-2.6c2.6,0.2,5.1,0.1,7.7,0c1.9-0.1,2.4,0.5,2.2,2.5c-1.4,10.5-10.8,19.5-21.7,20.8   C14.7,51.3,2.7,42.4,0.5,29.4c-0.3-2,0-3,2.2-2.8C4.1,26.7,5.5,26.6,6.9,26.6z"/>
	<path d="M43.1,23.2c-0.5,0-1.1-0.1-1.6,0c-3,0.4-4.8-0.3-6.1-3.6c-1.8-4.5-5.8-6.7-10.7-6.5c-5,0.2-8.8,2.8-10.5,7.5   c-0.8,2.1-1.8,2.7-3.9,2.6c-2.6-0.2-5.1-0.1-7.7,0c-1.9,0.1-2.4-0.5-2.1-2.4C1.9,11.1,9.8,2.7,19.6,0.6C29.9-1.6,40.5,2.7,46,11.4   c1.9,2.9,3.1,6.1,3.6,9.5c0.3,1.6-0.1,2.4-1.9,2.3C46.2,23.1,44.6,23.2,43.1,23.2z"/>
	<path d="M25.1,16.8c4.5,0,8.2,3.8,8.1,8.2c-0.1,4.4-3.6,8-8.1,8c-4.5,0-8.2-3.6-8.2-8.1C16.9,20.5,20.6,16.8,25.1,16.8   z"/>
</g>
   </symbol>
</svg>